<?xml version="1.0" encoding="UTF-8" standalone="no"?>
<!-- Created with Inkscape (http://www.inkscape.org/) -->

<svg
   xmlns:dc="http://purl.org/dc/elements/1.1/"
   xmlns:cc="http://creativecommons.org/ns#"
   xmlns:rdf="http://www.w3.org/1999/02/22-rdf-syntax-ns#"
   xmlns:svg="http://www.w3.org/2000/svg"
   xmlns="http://www.w3.org/2000/svg"
   xmlns:sodipodi="http://sodipodi.sourceforge.net/DTD/sodipodi-0.dtd"
   xmlns:inkscape="http://www.inkscape.org/namespaces/inkscape"
   id="svg2"
   version="1.1"
   inkscape:version="0.91 r13725"
   xml:space="preserve"
   width="720"
   height="540"
   viewBox="0 0 720 540"
   sodipodi:docname="simple.svg"><metadata
     id="metadata8"><rdf:RDF><cc:Work
         rdf:about=""><dc:format>image/svg+xml</dc:format><dc:type
           rdf:resource="http://purl.org/dc/dcmitype/StillImage" /><dc:title></dc:title></cc:Work></rdf:RDF></metadata><defs
     id="defs6"><clipPath
       clipPathUnits="userSpaceOnUse"
       id="clipPath20"><path
         d="m 122.4,43.2 345.6,0 0,345.6 -345.6,0 0,-345.6 z"
         id="path22"
         inkscape:connector-curvature="0" /></clipPath><clipPath
       clipPathUnits="userSpaceOnUse"
       id="clipPath36"><path
         d="m 122.4,43.2 345.6,0 0,345.6 -345.6,0 0,-345.6 z"
         id="path38"
         inkscape:connector-curvature="0" /></clipPath><clipPath
       clipPathUnits="userSpaceOnUse"
       id="clipPath52"><path
         d="m 122.4,43.2 345.6,0 0,345.6 -345.6,0 0,-345.6 z"
         id="path54"
         inkscape:connector-curvature="0" /></clipPath><clipPath
       clipPathUnits="userSpaceOnUse"
       id="clipPath68"><path
         d="m 122.4,43.2 345.6,0 0,345.6 -345.6,0 0,-345.6 z"
         id="path70"
         inkscape:connector-curvature="0" /></clipPath><clipPath
       clipPathUnits="userSpaceOnUse"
       id="clipPath78"><path
         d="m 122.4,43.2 345.6,0 0,345.6 -345.6,0 0,-345.6 z"
         id="path80"
         inkscape:connector-curvature="0" /></clipPath><clipPath
       clipPathUnits="userSpaceOnUse"
       id="clipPath88"><path
         d="m 122.4,43.2 345.6,0 0,345.6 -345.6,0 0,-345.6 z"
         id="path90"
         inkscape:connector-curvature="0" /></clipPath></defs><sodipodi:namedview
     pagecolor="#ffffff"
     bordercolor="#666666"
     borderopacity="1"
     objecttolerance="10"
     gridtolerance="10"
     guidetolerance="10"
     inkscape:pageopacity="0"
     inkscape:pageshadow="2"
     inkscape:window-width="1920"
     inkscape:window-height="1033"
     id="namedview4"
     showgrid="false"
     inkscape:zoom="1.2361274"
     inkscape:cx="400.71242"
     inkscape:cy="200.91403"
     inkscape:window-x="-3"
     inkscape:window-y="24"
     inkscape:window-maximized="1"
     inkscape:current-layer="g10" /><g
     id="g10"
     inkscape:groupmode="layer"
     inkscape:label="simple"
     transform="matrix(1.25,0,0,-1.25,0,540)"><g
       id="g16"><g
         id="g18"
         clip-path="url(#clipPath20)"><path
           d="m 452.87263,43.2 1.30337,1.198096 0.56981,0.529904 1.15819,1.087317 0.67477,0.640683 1.05323,1.009813 0.74088,0.718187 0.98712,0.966569 0.76937,0.761431 0.95863,0.958634 0.76143,0.769366 0.96657,0.987124 0.71819,0.740876 1.00981,1.053225 0.64068,0.674775 1.08732,1.158194 0.5299,0.569806 1.1981,1.303369"
           style="fill:none;stroke:#000000;stroke-width:1;stroke-linecap:butt;stroke-linejoin:round;stroke-miterlimit:10;stroke-dasharray:none;stroke-opacity:1"
           id="path24"
           inkscape:connector-curvature="0" /><path
           d="M 122.4,58.327369 123.5981,57.024 124.128,56.454194 125.21532,55.296 125.856,54.621225 126.86581,53.568 127.584,52.827124 128.55057,51.84 129.312,51.070634 130.27063,50.112 131.04,49.350569 132.02712,48.384 132.768,47.665813 133.82123,46.656 134.496,46.015317 135.65419,44.928 136.224,44.398096 137.52737,43.2"
           style="fill:none;stroke:#000000;stroke-width:1;stroke-linecap:butt;stroke-linejoin:round;stroke-miterlimit:10;stroke-dasharray:none;stroke-opacity:1"
           id="path26"
           inkscape:connector-curvature="0" /><path
           d="m 468,373.67263 -1.1981,1.30337 -0.5299,0.56981 -1.08732,1.15819 -0.64068,0.67477 -1.00981,1.05323 -0.71819,0.74088 -0.96657,0.98712 -0.76143,0.76937 -0.95863,0.95863 -0.76937,0.76143 -0.98712,0.96657 -0.74088,0.71819 -1.05323,1.00981 -0.67477,0.64068 -1.15819,1.08732 -0.56981,0.5299 -1.30337,1.1981"
           style="fill:none;stroke:#000000;stroke-width:1;stroke-linecap:butt;stroke-linejoin:round;stroke-miterlimit:10;stroke-dasharray:none;stroke-opacity:1"
           id="path28"
           inkscape:connector-curvature="0" /><path
           d="M 137.52737,388.8 136.224,387.6019 135.65419,387.072 134.496,385.98468 133.82123,385.344 132.768,384.33419 132.02712,383.616 131.04,382.64943 130.27063,381.888 129.312,380.92937 128.55057,380.16 127.584,379.17288 126.86581,378.432 125.856,377.37877 125.21532,376.704 124.128,375.54581 123.5981,374.976 122.4,373.67263"
           style="fill:none;stroke:#000000;stroke-width:1;stroke-linecap:butt;stroke-linejoin:round;stroke-miterlimit:10;stroke-dasharray:none;stroke-opacity:1"
           id="path30"
           inkscape:connector-curvature="0" /></g></g><g
       id="g32"><g
         id="g34"
         clip-path="url(#clipPath36)"><path
           d="m 402.59857,43.2 1.46543,0.918792 1.2657,0.809208 0.4623,0.297513 1.728,1.131533 0.44883,0.298954 1.27917,0.857963 1.27364,0.870037 0.45436,0.312635 1.728,1.209068 0.29022,0.206297 1.43778,1.029896 0.95802,0.698104 0.76998,0.565573 1.55628,1.162427 0.17172,0.129329 1.728,1.320885 0.35787,0.277786 1.37013,1.072809 0.82378,0.655191 0.90422,0.725688 1.22998,1.002312 0.49802,0.409641 1.5791,1.318359 0.1489,0.125519 1.728,1.477009 0.14481,0.125472 1.58319,1.385643 0.38578,0.342357 1.34222,1.203624 0.57691,0.524376 1.15109,1.057564 0.72019,0.670436 1.00781,0.948636 0.81745,0.779364 0.91055,0.878089 0.87043,0.849911 0.85757,0.847259 0.88074,0.880741 0.84726,0.857572 0.84991,0.870428 0.87809,0.910548 0.77936,0.817452 0.94864,1.00781 0.67044,0.72019 1.05756,1.151087 0.52438,0.576913 1.20362,1.342223 0.34236,0.385777 1.38564,1.583187 0.12547,0.144813 1.47701,1.728 0.12552,0.148899 1.31836,1.579101 0.40964,0.498017 1.00231,1.229983 0.72569,0.904222 0.65519,0.823778 1.07281,1.370128 0.27779,0.357872 1.32088,1.728 0.12933,0.171719 1.16243,1.556281 0.56557,0.76998 0.6981,0.95802 1.0299,1.437783 0.2063,0.290217 1.20906,1.728 0.31264,0.45435 0.87004,1.27365 0.85796,1.27917 0.29895,0.44883 1.13154,1.728 0.29751,0.4623 0.80921,1.2657 0.91879,1.46543"
           style="fill:none;stroke:#000000;stroke-width:1;stroke-linecap:butt;stroke-linejoin:round;stroke-miterlimit:10;stroke-dasharray:none;stroke-opacity:1"
           id="path40"
           inkscape:connector-curvature="0" /><path
           d="m 122.4,108.60143 0.91879,-1.46543 0.80921,-1.2657 0.29751,-0.4623 1.13154,-1.728 0.29895,-0.44883 0.85796,-1.27917 0.87004,-1.27365 0.31264,-0.45435 1.20906,-1.728 0.2063,-0.290217 L 130.3419,96.768 131.04,95.80998 131.60557,95.04 132.768,93.483719 132.89733,93.312 134.21821,91.584 134.496,91.226128 135.56881,89.856 136.224,89.032222 136.94969,88.128 137.952,86.898017 138.36164,86.4 139.68,84.820899 139.80552,84.672 141.28253,82.944 141.408,82.799187 142.79364,81.216 143.136,80.830223 144.33962,79.488 144.864,78.911087 145.92156,77.76 146.592,77.03981 147.54064,76.032 148.32,75.214548 149.19809,74.304 150.048,73.433572 150.89526,72.576 151.776,71.695259 152.63357,70.848 153.504,69.998089 154.41455,69.12 155.232,68.340636 156.23981,67.392 156.96,66.721564 158.11109,65.664 158.688,65.139624 160.03022,63.936 160.416,63.593643 161.99919,62.208 162.144,62.082528 163.872,60.605519 164.0209,60.48 165.6,59.161641 166.09802,58.752 167.328,57.749688 168.23222,57.024 169.056,56.368809 170.42613,55.296 170.784,55.018214 172.512,53.697329 172.68372,53.568 174.24,52.405573 175.00998,51.84 175.968,51.141896 177.40578,50.112 177.696,49.905703 179.424,48.696635 179.87835,48.384 181.152,47.513963 182.43117,46.656 182.88,46.357046 184.608,45.225513 185.0703,44.928 186.336,44.118792 187.80143,43.2"
           style="fill:none;stroke:#000000;stroke-width:1;stroke-linecap:butt;stroke-linejoin:round;stroke-miterlimit:10;stroke-dasharray:none;stroke-opacity:1"
           id="path42"
           inkscape:connector-curvature="0" /><path
           d="m 468,323.39857 -0.91879,1.46543 -0.80921,1.2657 -0.29751,0.4623 -1.13154,1.728 -0.29895,0.44883 -0.85796,1.27917 -0.87004,1.27364 -0.31264,0.45436 -1.20906,1.728 -0.2063,0.29022 -1.0299,1.43778 -0.6981,0.95802 -0.56557,0.76998 -1.16243,1.55628 -0.12933,0.17172 -1.32088,1.728 -0.27779,0.35787 -1.07281,1.37013 -0.65519,0.82378 -0.72569,0.90422 -1.00231,1.22998 -0.40964,0.49802 -1.31836,1.5791 -0.12552,0.1489 -1.47701,1.728 -0.12547,0.14481 -1.38564,1.58319 -0.34236,0.38578 -1.20362,1.34222 -0.52438,0.57691 -1.05756,1.15109 -0.67044,0.72019 -0.94864,1.00781 -0.77936,0.81745 -0.87809,0.91055 -0.84991,0.87043 -0.84726,0.85757 -0.88074,0.88074 -0.85757,0.84726 -0.87043,0.84991 -0.91055,0.87809 -0.81745,0.77936 -1.00781,0.94864 -0.72019,0.67044 -1.15109,1.05756 -0.57691,0.52438 -1.34222,1.20362 -0.38578,0.34236 -1.58319,1.38564 -0.14481,0.12547 -1.728,1.47701 -0.1489,0.12552 -1.5791,1.31836 -0.49802,0.40964 -1.22998,1.00231 -0.90422,0.72569 -0.82378,0.65519 -1.37013,1.07281 -0.35787,0.27779 -1.728,1.32088 -0.17172,0.12933 -1.55628,1.16243 -0.76998,0.56557 -0.95802,0.6981 -1.43778,1.0299 -0.29022,0.2063 -1.728,1.20906 -0.45436,0.31264 -1.27364,0.87004 -1.27917,0.85796 -0.44883,0.29895 -1.728,1.13154 -0.4623,0.29751 -1.2657,0.80921 -1.46543,0.91879"
           style="fill:none;stroke:#000000;stroke-width:1;stroke-linecap:butt;stroke-linejoin:round;stroke-miterlimit:10;stroke-dasharray:none;stroke-opacity:1"
           id="path44"
           inkscape:connector-curvature="0" /><path
           d="m 187.80143,388.8 -1.46543,-0.91879 -1.2657,-0.80921 -0.4623,-0.29751 -1.728,-1.13154 -0.44883,-0.29895 -1.27917,-0.85796 -1.27365,-0.87004 -0.45435,-0.31264 -1.728,-1.20906 -0.29022,-0.2063 -1.43778,-1.0299 -0.95802,-0.6981 -0.76998,-0.56557 -1.55628,-1.16243 -0.17172,-0.12933 -1.728,-1.32088 -0.35787,-0.27779 -1.37013,-1.07281 -0.82378,-0.65519 -0.90422,-0.72569 -1.22998,-1.00231 -0.49802,-0.40964 -1.5791,-1.31836 -0.1489,-0.12552 -1.728,-1.47701 -0.14481,-0.12547 -1.58319,-1.38564 -0.38578,-0.34236 -1.34222,-1.20362 -0.57691,-0.52438 -1.15109,-1.05756 -0.72019,-0.67044 -1.00781,-0.94864 -0.81745,-0.77936 -0.91055,-0.87809 -0.87043,-0.84991 -0.85757,-0.84726 -0.88074,-0.88074 -0.84726,-0.85757 -0.84991,-0.87043 -0.87809,-0.91055 -0.77936,-0.81745 -0.94864,-1.00781 -0.67044,-0.72019 -1.05756,-1.15109 -0.52438,-0.57691 -1.20362,-1.34222 -0.34236,-0.38578 -1.38564,-1.58319 -0.12547,-0.14481 -1.47701,-1.728 -0.12552,-0.1489 -1.31836,-1.5791 -0.40964,-0.49802 -1.00231,-1.22998 -0.72569,-0.90422 -0.65519,-0.82378 -1.07281,-1.37013 -0.27779,-0.35787 -1.32088,-1.728 -0.12933,-0.17172 -1.16243,-1.55628 -0.56557,-0.76998 -0.6981,-0.95802 -1.0299,-1.43778 -0.2063,-0.29022 -1.20906,-1.728 -0.31264,-0.45436 -0.87004,-1.27364 -0.85796,-1.27917 -0.29895,-0.44883 -1.13154,-1.728 -0.29751,-0.4623 -0.80921,-1.2657 -0.91879,-1.46543"
           style="fill:none;stroke:#000000;stroke-width:1;stroke-linecap:butt;stroke-linejoin:round;stroke-miterlimit:10;stroke-dasharray:none;stroke-opacity:1"
           id="path46"
           inkscape:connector-curvature="0" /></g></g><g
       id="g48"><g
         id="g50"
         clip-path="url(#clipPath52)"><path
           d="m 320.61452,43.2 5.68948,0.931223 6.912,1.395591 6.912,1.689934 5.184,1.465884 5.184,1.640974 5.184,1.821377 5.184,2.007872 5.184,2.201284 5.184,2.402494 5.184,2.614276 5.184,2.835511 5.37036,3.18558 5.37332,3.456 4.97594,3.456 5.01638,3.753751 5.184,4.187724 4.76922,4.154525 3.87078,3.604324 5.184,5.190426 4.63054,5.02925 4.00946,4.69377 3.456,4.33148 3.57703,4.79875 3.58651,5.184 3.31992,5.184 3.34054,5.66292 2.56509,4.70508 2.61891,5.19366 2.39786,5.17434 2.78614,6.64633 2.05054,5.44967 1.76059,5.184 1.58212,5.184 1.84031,6.912 1.54176,6.912 1.25116,6.912 0.34152,2.23348 0,0"
           style="fill:none;stroke:#000000;stroke-width:1;stroke-linecap:butt;stroke-linejoin:round;stroke-miterlimit:10;stroke-dasharray:none;stroke-opacity:1"
           id="path56"
           inkscape:connector-curvature="0" /><path
           d="m 122.4,190.58548 0.93122,-5.68948 1.39559,-6.912 1.68994,-6.912 1.46588,-5.184 1.64098,-5.184 1.82137,-5.184 2.00787,-5.184 2.20129,-5.184 2.40249,-5.184 2.61428,-5.184 2.83551,-5.184 3.18558,-5.37036 3.456,-5.37332 3.456,-4.97594 3.75375,-5.01638 4.18772,-5.184 4.15453,-4.769225 3.60432,-3.870775 5.19043,-5.184 5.02925,-4.630544 4.69377,-4.009456 4.33147,-3.456 4.79876,-3.57703 5.184,-3.586513 5.184,-3.319913 5.66292,-3.340544 4.70508,-2.565091 5.19366,-2.618909 5.17434,-2.397861 6.64633,-2.786139 5.44967,-2.050536 5.184,-1.760592 5.184,-1.582123 6.912,-1.840307 6.912,-1.541762 6.912,-1.251159 2.23348,-0.341521 0,0"
           style="fill:none;stroke:#000000;stroke-width:1;stroke-linecap:butt;stroke-linejoin:round;stroke-miterlimit:10;stroke-dasharray:none;stroke-opacity:1"
           id="path58"
           inkscape:connector-curvature="0" /><path
           d="m 468,241.41452 -0.93122,5.68948 -1.39559,6.912 -1.68994,6.912 -1.46588,5.184 -1.64098,5.184 -1.82137,5.184 -2.00788,5.184 -2.20128,5.184 -2.40249,5.184 -2.61428,5.184 -2.83551,5.184 -3.18558,5.37036 -3.456,5.37332 -3.456,4.97594 -3.75375,5.01638 -4.18773,5.184 -4.15452,4.76922 -3.60432,3.87078 -5.19043,5.184 -5.02925,4.63054 -4.69377,4.00946 -4.33148,3.456 -4.79875,3.57703 -5.184,3.58651 -5.184,3.31992 -5.66293,3.34054 -4.70507,2.56509 -5.19366,2.61891 -5.17434,2.39786 -6.64633,2.78614 -5.44967,2.05054 -5.184,1.76059 -5.184,1.58212 -6.912,1.84031 -6.912,1.54176 -6.912,1.25116 -2.23348,0.34152 0,0"
           style="fill:none;stroke:#000000;stroke-width:1;stroke-linecap:butt;stroke-linejoin:round;stroke-miterlimit:10;stroke-dasharray:none;stroke-opacity:1"
           id="path60"
           inkscape:connector-curvature="0" /><path
           d="m 269.78548,388.8 -5.68948,-0.93122 -6.912,-1.39559 -6.912,-1.68994 -5.184,-1.46588 -5.184,-1.64098 -5.184,-1.82137 -5.184,-2.00788 -5.184,-2.20128 -5.184,-2.40249 -5.184,-2.61428 -5.184,-2.83551 -5.37037,-3.18558 -5.3733,-3.456 -4.97595,-3.456 -5.01638,-3.75375 -5.184,-4.18773 -4.76923,-4.15452 -3.87077,-3.60432 -5.184,-5.19043 -4.63054,-5.02925 -4.00946,-4.69377 -3.456,-4.33148 -3.57703,-4.79875 -3.58651,-5.184 -3.31992,-5.184 -3.34054,-5.66293 -2.56509,-4.70507 -2.61891,-5.19366 -2.39786,-5.17434 -2.78614,-6.64633 -2.05054,-5.44967 -1.76059,-5.184 -1.58212,-5.184 -1.84031,-6.912 -1.54176,-6.912 -1.25116,-6.912 -0.34152,-2.23348 0,0"
           style="fill:none;stroke:#000000;stroke-width:1;stroke-linecap:butt;stroke-linejoin:round;stroke-miterlimit:10;stroke-dasharray:none;stroke-opacity:1"
           id="path62"
           inkscape:connector-curvature="0" /></g></g><g
       id="g64"><g
         id="g66"
         clip-path="url(#clipPath68)"><path
           d="m 281.376,70.709439 5.184,-0.399797 5.184,-0.214952 5.184,-0.03069 5.184,0.153491 5.184,0.338087 5.184,0.524407 5.184,0.713017 5.184,0.902983 5.184,1.098618 5.184,1.297452 5.184,1.501907 5.184,1.713391 5.184,1.932927 5.184,2.161594 5.184,2.401282 5.184,2.656485 5.184,2.925357 5.184,3.214169 5.184,3.527346 5.184,3.869137 3.456,2.78453 5.184,4.52278 4.2196,4.01704 4.4204,4.57433 3.62391,4.06567 4.24444,5.184 2.61984,3.456 3.63693,5.184 3.31628,5.184 3.2946,5.68464 2.4677,4.68336 2.7163,5.6968 2.00957,4.6712 2.00762,5.184 1.78554,5.184 1.57179,5.184 1.36535,5.184 1.16348,5.184 0.96797,5.184 0.77595,5.184 0.58729,5.184 0.3998,5.184 0.21495,5.184 0.0307,5.184 -0.15349,5.184 -0.33809,5.184 -0.52441,5.184 -0.71301,5.184 -0.90299,5.184 -1.09861,5.184 -1.29746,5.184 -1.5019,5.184 -1.71339,5.184 -1.93293,5.184 -2.1616,5.184 -2.40128,5.184 -2.65648,5.184 -2.92536,5.184 -3.21417,5.184 -3.52734,5.184 -3.86914,5.184 -2.78453,3.456 -4.52278,5.184 -4.01704,4.2196 -4.57433,4.4204 -4.06567,3.62391 -5.184,4.24444 -3.456,2.61984 -5.184,3.63693 -5.184,3.31628 -5.68464,3.2946 -4.68336,2.4677 -5.6968,2.7163 -4.6712,2.00957 -5.184,2.00762 -5.184,1.78554 -5.184,1.57179 -5.184,1.36535 -5.184,1.16348 -5.184,0.96797 -5.184,0.77595 -5.184,0.58729 -5.184,0.3998 -5.184,0.21495 -5.184,0.0307 -5.184,-0.15349 -5.184,-0.33809 -5.184,-0.52441 -5.184,-0.71301 -5.184,-0.90299 -5.184,-1.09861 -5.184,-1.29746 -5.184,-1.5019 -5.184,-1.71339 -5.184,-1.93293 -5.184,-2.1616 -5.184,-2.40128 -5.184,-2.65648 -5.184,-2.92536 -5.184,-3.21417 -5.184,-3.52734 -5.184,-3.86914 -3.456,-2.78452 -5.184,-4.52279 -4.2196,-4.01704 -4.4204,-4.57433 -3.62392,-4.06567 -4.24443,-5.184 -2.61984,-3.456 -3.63693,-5.184 -3.31628,-5.184 -3.2946,-5.68464 -2.4677,-4.68336 -2.7163,-5.6968 -2.00957,-4.6712 -2.00762,-5.184 -1.78554,-5.184 -1.57179,-5.184 -1.36535,-5.184 -1.16349,-5.184 -0.96796,-5.184 -0.77595,-5.184 -0.58729,-5.184 -0.3998,-5.184 -0.21495,-5.184 -0.0307,-5.184 0.15349,-5.184 0.33809,-5.184 0.52441,-5.184 0.71301,-5.184 0.90299,-5.184 1.09861,-5.184 1.29746,-5.184 1.5019,-5.184 1.71339,-5.184 1.93293,-5.184 2.16159,-5.184 2.40129,-5.184 2.65648,-5.184 2.92536,-5.184 3.21417,-5.184 3.52734,-5.184 3.86914,-5.184 2.78452,-3.456 4.52279,-5.184 4.01704,-4.2196 4.57433,-4.4204 4.06567,-3.62391 5.184,-4.24444 3.456,-2.619844 5.184,-3.636924 5.184,-3.316282 5.68464,-3.294601 4.68336,-2.467703 5.6968,-2.716297 4.6712,-2.009574 5.184,-2.007617 5.184,-1.785537 5.184,-1.571792 5.184,-1.365346 5.184,-1.163489 5.184,-0.967965 5.184,-0.775949 5.184,-0.587292 0,0"
           style="fill:none;stroke:#000000;stroke-width:1;stroke-linecap:butt;stroke-linejoin:round;stroke-miterlimit:10;stroke-dasharray:none;stroke-opacity:1"
           id="path72"
           inkscape:connector-curvature="0" /></g></g><g
       id="g74"><g
         id="g76"
         clip-path="url(#clipPath78)"><path
           d="m 277.92,101.86245 5.184,-0.66375 5.184,-0.42858 5.184,-0.19458 5.184,0.0389 5.184,0.27249 5.184,0.50681 5.184,0.74409 5.184,0.98862 5.184,1.23711 5.184,1.49414 5.184,1.76283 5.184,2.04474 5.184,2.34162 4.02907,2.04111 4.61093,2.58518 4.18752,2.59882 4.45248,3.04501 3.456,2.58459 3.71212,3.0104 3.90097,3.456 3.57211,3.456 3.28337,3.456 3.02785,3.456 3.23958,4.03397 3.35909,4.60603 2.29796,3.456 3.12913,5.184 2.77177,5.184 2.44737,5.184 2.14055,5.184 1.85484,5.184 1.5828,5.184 1.32277,5.184 1.06911,5.184 0.82564,5.184 0.58519,5.184 0.35048,5.184 0.11673,5.184 -0.11673,5.184 -0.35048,5.184 -0.58519,5.184 -0.82564,5.184 -1.06911,5.184 -1.32277,5.184 -1.5828,5.184 -1.85484,5.184 -2.14055,5.184 -1.90932,4.09716 -2.34905,4.54284 -3.0047,5.184 -3.38316,5.184 -3.35909,4.60603 -3.23958,4.03397 -3.02785,3.456 -3.28337,3.456 -3.57211,3.456 -4.15709,3.67242 -4.03397,3.23958 -4.60603,3.35909 -3.456,2.29796 -5.184,3.12913 -5.184,2.77177 -5.184,2.44737 -5.184,2.14055 -5.184,1.85484 -5.184,1.5828 -5.184,1.32277 -5.184,1.06911 -5.184,0.82564 -5.184,0.58519 -5.184,0.35048 -5.184,0.11673 -5.184,-0.11673 -5.184,-0.35048 -5.184,-0.58519 -5.184,-0.82564 -5.184,-1.06911 -5.184,-1.32277 -5.184,-1.5828 -5.184,-1.85484 -5.184,-2.14055 -4.09716,-1.90932 -4.54284,-2.34905 -5.184,-3.0047 -5.184,-3.38316 -4.60603,-3.35909 -4.03397,-3.23958 -3.456,-3.02785 -3.456,-3.28337 -3.456,-3.57211 -3.67242,-4.15709 -3.23958,-4.03397 -3.35909,-4.60603 -2.29796,-3.456 -3.12913,-5.184 -2.77177,-5.184 -2.44737,-5.184 -2.14055,-5.184 -1.85484,-5.184 -1.5828,-5.184 -1.32277,-5.184 -1.06911,-5.184 -0.82564,-5.184 -0.58519,-5.184 -0.35048,-5.184 -0.11673,-5.184 0.11673,-5.184 0.35048,-5.184 0.58519,-5.184 0.82564,-5.184 1.06911,-5.184 1.32277,-5.184 1.5828,-5.184 1.85484,-5.184 2.14055,-5.184 1.90932,-4.09716 2.34905,-4.54284 3.0047,-5.184 3.38316,-5.184 3.35909,-4.60603 3.23958,-4.03397 3.02785,-3.456 3.28337,-3.456 3.57211,-3.456 4.15709,-3.67242 4.03397,-3.23958 4.60603,-3.35909 3.456,-2.29796 5.184,-3.12913 5.184,-2.77177 5.184,-2.44737 5.184,-2.14055 5.184,-1.85484 5.184,-1.5828 5.184,-1.32277 5.184,-1.06911 3.456,-0.57816 0,0"
           style="fill:none;stroke:#000000;stroke-width:1;stroke-linecap:butt;stroke-linejoin:round;stroke-miterlimit:10;stroke-dasharray:none;stroke-opacity:1"
           id="path82"
           inkscape:connector-curvature="0" /></g></g><g
       id="g84"><g
         id="g86"
         clip-path="url(#clipPath88)"><path
           d="m 279.648,138.21697 1.728,-0.3234 1.728,-0.28511 3.456,-0.45575 3.456,-0.30352 3.456,-0.15167 3.456,0 3.456,0.15167 3.456,0.30352 3.456,0.45575 3.56612,0.63154 3.34588,0.75218 3.59755,0.97582 3.31445,1.06749 3.456,1.2856 3.456,1.47267 3.456,1.67323 3.456,1.88894 3.456,2.12174 3.7457,2.58633 3.1663,2.45227 3.456,2.98385 3.456,3.36246 3.456,3.81791 2.37284,2.93551 2.81116,3.88893 1.95172,3.02307 2.00015,3.456 1.77858,3.456 1.57273,3.456 1.38082,3.456 1.684,5.04245 0.52912,1.86955 1.19888,5.07388 0.34642,1.83812 0.53205,3.456 0.37958,3.456 0.22756,3.456 0.0758,3.456 -0.0758,3.456 -0.22756,3.456 -0.37958,3.456 -0.53205,3.456 -0.69121,3.456 -0.85409,3.456 -1.02073,3.456 -1.23639,3.57183 -1.728,4.23774 -1.728,3.66351 -1.728,3.24268 -1.728,2.92466 -2.02222,3.09558 -3.16178,4.28152 -2.17295,2.63048 -3.16474,3.456 -3.57928,3.456 -3.17903,2.73172 -3.456,2.66483 -3.456,2.37378 -3.456,2.12174 -4.07892,2.20393 -3.66351,1.728 -4.23774,1.728 -1.84383,0.66051 -3.456,1.1105 -3.456,0.9328 -3.456,0.77522 -3.456,0.60851 -3.456,0.45575 -3.456,0.30352 -3.456,0.15167 -3.456,0 -3.456,-0.15167 -3.456,-0.30352 -3.456,-0.45575 -3.56612,-0.63154 -3.34588,-0.75219 -3.59755,-0.97581 -3.31445,-1.06749 -3.456,-1.2856 -3.456,-1.47268 -3.456,-1.67322 -3.456,-1.88894 -3.456,-2.12174 -3.7457,-2.58633 -3.1663,-2.45228 -3.456,-2.98385 -3.456,-3.36245 -3.456,-3.81791 -2.37284,-2.93551 -2.81116,-3.88893 -1.95172,-3.02307 -2.00015,-3.456 -1.77859,-3.456 -1.57272,-3.456 -1.38081,-3.456 -1.68401,-5.04245 -0.52912,-1.86955 -1.19888,-5.07388 -0.34643,-1.83812 -0.53204,-3.456 -0.37958,-3.456 -0.22756,-3.456 -0.0758,-3.456 0.0758,-3.456 0.22756,-3.456 0.37958,-3.456 0.53204,-3.456 0.69121,-3.456 0.8541,-3.456 1.02073,-3.456 1.23639,-3.57183 1.728,-4.23774 1.728,-3.66351 1.728,-3.24268 1.728,-2.92466 2.02222,-3.09558 3.16178,-4.28152 2.17294,-2.63048 3.16475,-3.456 3.57928,-3.456 3.17903,-2.73173 3.456,-2.66482 3.456,-2.37378 3.456,-2.12174 4.07892,-2.20393 3.66351,-1.728 4.23774,-1.728 1.84383,-0.66051 3.456,-1.1105 3.456,-0.93281 3.456,-0.77521 0,0"
           style="fill:none;stroke:#000000;stroke-width:1;stroke-linecap:butt;stroke-linejoin:round;stroke-miterlimit:10;stroke-dasharray:none;stroke-opacity:1"
           id="path92"
           inkscape:connector-curvature="0" /></g></g><g
       id="g94"><path
         d="m 122.4,388.8 345.6,0"
         style="fill:none;stroke:#000000;stroke-width:1;stroke-linecap:square;stroke-linejoin:miter;stroke-miterlimit:10;stroke-dasharray:none;stroke-opacity:1"
         id="path96"
         inkscape:connector-curvature="0" /><path
         d="m 468,43.2 0,345.6"
         style="fill:none;stroke:#000000;stroke-width:1;stroke-linecap:square;stroke-linejoin:miter;stroke-miterlimit:10;stroke-dasharray:none;stroke-opacity:1"
         id="path98"
         inkscape:connector-curvature="0" /><path
         d="m 122.4,43.2 345.6,0"
         style="fill:none;stroke:#000000;stroke-width:1;stroke-linecap:square;stroke-linejoin:miter;stroke-miterlimit:10;stroke-dasharray:none;stroke-opacity:1"
         id="path100"
         inkscape:connector-curvature="0" /><path
         d="m 122.4,43.2 0,345.6"
         style="fill:none;stroke:#000000;stroke-width:1;stroke-linecap:square;stroke-linejoin:miter;stroke-miterlimit:10;stroke-dasharray:none;stroke-opacity:1"
         id="path102"
         inkscape:connector-curvature="0" /></g></g></svg>