<?xml version="1.0" encoding="UTF-8" standalone="no"?>
<!-- Created with Inkscape (http://www.inkscape.org/) -->

<svg
   xmlns:dc="http://purl.org/dc/elements/1.1/"
   xmlns:cc="http://creativecommons.org/ns#"
   xmlns:rdf="http://www.w3.org/1999/02/22-rdf-syntax-ns#"
   xmlns:svg="http://www.w3.org/2000/svg"
   xmlns="http://www.w3.org/2000/svg"
   xmlns:sodipodi="http://sodipodi.sourceforge.net/DTD/sodipodi-0.dtd"
   xmlns:inkscape="http://www.inkscape.org/namespaces/inkscape"
   width="210mm"
   height="297mm"
   viewBox="0 0 744.09448819 1052.3622047"
   id="svg2"
   version="1.1"
   inkscape:version="0.91 r13725"
   sodipodi:docname="fig_1_upd.svg"
   inkscape:export-filename="/home/iriomotejin/gcresults/fig_1_upd.png"
   inkscape:export-xdpi="800"
   inkscape:export-ydpi="800">
  <defs
     id="defs4">
    <marker
       inkscape:stockid="Arrow2Mend"
       orient="auto"
       refY="0.0"
       refX="0.0"
       id="marker5549"
       style="overflow:visible;"
       inkscape:isstock="true">
      <path
         id="path4289"
         style="fill-rule:evenodd;stroke-width:0.625;stroke-linejoin:round;stroke:#000000;stroke-opacity:1;fill:#000000;fill-opacity:1"
         d="M 8.7185878,4.0337352 L -2.2072895,0.016013256 L 8.7185884,-4.0017078 C 6.9730900,-1.6296469 6.9831476,1.6157441 8.7185878,4.0337352 z "
         transform="scale(0.6) rotate(180) translate(0,0)" />
    </marker>
    <marker
       inkscape:stockid="Arrow1Mend"
       orient="auto"
       refY="0.0"
       refX="0.0"
       id="marker4580"
       style="overflow:visible;"
       inkscape:isstock="true">
      <path
         id="path4271"
         d="M 0.0,0.0 L 5.0,-5.0 L -12.5,0.0 L 5.0,5.0 L 0.0,0.0 z "
         style="fill-rule:evenodd;stroke:#000000;stroke-width:1pt;stroke-opacity:1;fill:#000000;fill-opacity:1"
         transform="scale(0.4) rotate(180) translate(10,0)" />
    </marker>
    <marker
       inkscape:stockid="Arrow1Send"
       orient="auto"
       refY="0.0"
       refX="0.0"
       id="Arrow1Send"
       style="overflow:visible;"
       inkscape:isstock="true">
      <path
         id="path4277"
         d="M 0.0,0.0 L 5.0,-5.0 L -12.5,0.0 L 5.0,5.0 L 0.0,0.0 z "
         style="fill-rule:evenodd;stroke:#000000;stroke-width:1pt;stroke-opacity:1;fill:#000000;fill-opacity:1"
         transform="scale(0.2) rotate(180) translate(6,0)" />
    </marker>
    <marker
       inkscape:stockid="Arrow2Mend"
       orient="auto"
       refY="0.0"
       refX="0.0"
       id="Arrow2Mend"
       style="overflow:visible;"
       inkscape:isstock="true">
      <path
         id="path4328"
         style="fill-rule:evenodd;stroke-width:0.625;stroke-linejoin:round;stroke:#000000;stroke-opacity:1;fill:#000000;fill-opacity:1"
         d="M 8.7185878,4.0337352 L -2.2072895,0.016013256 L 8.7185884,-4.0017078 C 6.9730900,-1.6296469 6.9831476,1.6157441 8.7185878,4.0337352 z "
         transform="scale(0.6) rotate(180) translate(0,0)" />
    </marker>
    <inkscape:path-effect
       effect="spiro"
       id="path-effect6220"
       is_visible="true" />
    <inkscape:path-effect
       effect="spiro"
       id="path-effect6216"
       is_visible="true" />
    <inkscape:path-effect
       effect="spiro"
       id="path-effect6212"
       is_visible="true" />
    <inkscape:path-effect
       effect="spiro"
       id="path-effect6196"
       is_visible="true" />
    <inkscape:path-effect
       effect="spiro"
       id="path-effect6192"
       is_visible="true" />
    <inkscape:path-effect
       effect="spiro"
       id="path-effect6188"
       is_visible="true" />
    <marker
       inkscape:stockid="Arrow1Mend"
       orient="auto"
       refY="0.0"
       refX="0.0"
       id="marker4912"
       style="overflow:visible;"
       inkscape:isstock="true">
      <path
         id="path4914"
         d="M 0.0,0.0 L 5.0,-5.0 L -12.5,0.0 L 5.0,5.0 L 0.0,0.0 z "
         style="fill-rule:evenodd;stroke:#000000;stroke-width:1pt;stroke-opacity:1;fill:#000000;fill-opacity:1"
         transform="scale(0.4) rotate(180) translate(10,0)" />
    </marker>
    <marker
       inkscape:stockid="Arrow1Mend"
       orient="auto"
       refY="0.0"
       refX="0.0"
       id="Arrow1Mend"
       style="overflow:visible;"
       inkscape:isstock="true">
      <path
         id="path4153"
         d="M 0.0,0.0 L 5.0,-5.0 L -12.5,0.0 L 5.0,5.0 L 0.0,0.0 z "
         style="fill-rule:evenodd;stroke:#000000;stroke-width:1pt;stroke-opacity:1;fill:#000000;fill-opacity:1"
         transform="scale(0.4) rotate(180) translate(10,0)" />
    </marker>
    <marker
       inkscape:stockid="Arrow2Lend"
       orient="auto"
       refY="0.0"
       refX="0.0"
       id="marker4684"
       style="overflow:visible;"
       inkscape:isstock="true">
      <path
         id="path4686"
         style="fill-rule:evenodd;stroke-width:0.625;stroke-linejoin:round;stroke:#000000;stroke-opacity:1;fill:#000000;fill-opacity:1"
         d="M 8.7185878,4.0337352 L -2.2072895,0.016013256 L 8.7185884,-4.0017078 C 6.9730900,-1.6296469 6.9831476,1.6157441 8.7185878,4.0337352 z "
         transform="scale(1.1) rotate(180) translate(1,0)" />
    </marker>
    <marker
       inkscape:stockid="Arrow2Lend"
       orient="auto"
       refY="0.0"
       refX="0.0"
       id="marker4644"
       style="overflow:visible;"
       inkscape:isstock="true">
      <path
         id="path4646"
         style="fill-rule:evenodd;stroke-width:0.625;stroke-linejoin:round;stroke:#000000;stroke-opacity:1;fill:#000000;fill-opacity:1"
         d="M 8.7185878,4.0337352 L -2.2072895,0.016013256 L 8.7185884,-4.0017078 C 6.9730900,-1.6296469 6.9831476,1.6157441 8.7185878,4.0337352 z "
         transform="scale(1.1) rotate(180) translate(1,0)" />
    </marker>
    <marker
       inkscape:stockid="Arrow2Lend"
       orient="auto"
       refY="0.0"
       refX="0.0"
       id="Arrow2Lend"
       style="overflow:visible;"
       inkscape:isstock="true">
      <path
         id="path4165"
         style="fill-rule:evenodd;stroke-width:0.625;stroke-linejoin:round;stroke:#000000;stroke-opacity:1;fill:#000000;fill-opacity:1"
         d="M 8.7185878,4.0337352 L -2.2072895,0.016013256 L 8.7185884,-4.0017078 C 6.9730900,-1.6296469 6.9831476,1.6157441 8.7185878,4.0337352 z "
         transform="scale(1.1) rotate(180) translate(1,0)" />
    </marker>
    <marker
       inkscape:isstock="true"
       style="overflow:visible;"
       id="marker4500"
       refX="0.0"
       refY="0.0"
       orient="auto"
       inkscape:stockid="Arrow1Lend">
      <path
         transform="scale(0.8) rotate(180) translate(12.5,0)"
         style="fill-rule:evenodd;stroke:#000000;stroke-width:1pt;stroke-opacity:1;fill:#000000;fill-opacity:1"
         d="M 0.0,0.0 L 5.0,-5.0 L -12.5,0.0 L 5.0,5.0 L 0.0,0.0 z "
         id="path4502" />
    </marker>
    <marker
       inkscape:stockid="Arrow1Send"
       orient="auto"
       refY="0"
       refX="0"
       id="Arrow1Send-6"
       style="overflow:visible"
       inkscape:isstock="true">
      <path
         inkscape:connector-curvature="0"
         id="path4277-7"
         d="M 0,0 5,-5 -12.5,0 5,5 0,0 Z"
         style="fill:#000000;fill-opacity:1;fill-rule:evenodd;stroke:#000000;stroke-width:1pt;stroke-opacity:1"
         transform="matrix(-0.2,0,0,-0.2,-1.2,0)" />
    </marker>
    <marker
       inkscape:stockid="Arrow1Send"
       orient="auto"
       refY="0"
       refX="0"
       id="Arrow1Send-6-3"
       style="overflow:visible"
       inkscape:isstock="true">
      <path
         inkscape:connector-curvature="0"
         id="path4277-7-5"
         d="M 0,0 5,-5 -12.5,0 5,5 0,0 Z"
         style="fill:#005500;fill-opacity:1;fill-rule:evenodd;stroke:#005500;stroke-width:1pt;stroke-opacity:1"
         transform="matrix(-0.2,0,0,-0.2,-1.2,0)" />
    </marker>
    <marker
       inkscape:stockid="Arrow1Send"
       orient="auto"
       refY="0"
       refX="0"
       id="Arrow1Send-62"
       style="overflow:visible"
       inkscape:isstock="true">
      <path
         inkscape:connector-curvature="0"
         id="path4277-9"
         d="M 0,0 5,-5 -12.5,0 5,5 0,0 Z"
         style="fill:#000000;fill-opacity:1;fill-rule:evenodd;stroke:#000000;stroke-width:1pt;stroke-opacity:1"
         transform="matrix(-0.2,0,0,-0.2,-1.2,0)" />
    </marker>
    <marker
       inkscape:stockid="Arrow1Send"
       orient="auto"
       refY="0"
       refX="0"
       id="Arrow1Send-6-7"
       style="overflow:visible"
       inkscape:isstock="true">
      <path
         inkscape:connector-curvature="0"
         id="path4277-7-0"
         d="M 0,0 5,-5 -12.5,0 5,5 0,0 Z"
         style="fill:#008000;fill-opacity:1;fill-rule:evenodd;stroke:#008000;stroke-width:1pt;stroke-opacity:1"
         transform="matrix(-0.2,0,0,-0.2,-1.2,0)" />
    </marker>
    <marker
       inkscape:stockid="Arrow1Send"
       orient="auto"
       refY="0"
       refX="0"
       id="Arrow1Send-9"
       style="overflow:visible"
       inkscape:isstock="true">
      <path
         inkscape:connector-curvature="0"
         id="path4277-3"
         d="M 0,0 5,-5 -12.5,0 5,5 0,0 Z"
         style="fill:#005500;fill-opacity:1;fill-rule:evenodd;stroke:#005500;stroke-width:1pt;stroke-opacity:1"
         transform="matrix(-0.2,0,0,-0.2,-1.2,0)" />
    </marker>
    <marker
       inkscape:stockid="Arrow1Send"
       orient="auto"
       refY="0"
       refX="0"
       id="Arrow1Send-6-7-6"
       style="overflow:visible"
       inkscape:isstock="true">
      <path
         inkscape:connector-curvature="0"
         id="path4277-7-0-2"
         d="M 0,0 5,-5 -12.5,0 5,5 0,0 Z"
         style="fill:#aaffaa;fill-opacity:1;fill-rule:evenodd;stroke:#aaffaa;stroke-width:1pt;stroke-opacity:1"
         transform="matrix(-0.2,0,0,-0.2,-1.2,0)" />
    </marker>
    <marker
       inkscape:stockid="Arrow1Send"
       orient="auto"
       refY="0"
       refX="0"
       id="Arrow1Send-9-6"
       style="overflow:visible"
       inkscape:isstock="true">
      <path
         inkscape:connector-curvature="0"
         id="path4277-3-1"
         d="M 0,0 5,-5 -12.5,0 5,5 0,0 Z"
         style="fill:#aaffaa;fill-opacity:1;fill-rule:evenodd;stroke:#aaffaa;stroke-width:1pt;stroke-opacity:1"
         transform="matrix(-0.2,0,0,-0.2,-1.2,0)" />
    </marker>
    <marker
       inkscape:stockid="Arrow1Send"
       orient="auto"
       refY="0"
       refX="0"
       id="Arrow1Send-6-3-8"
       style="overflow:visible"
       inkscape:isstock="true">
      <path
         inkscape:connector-curvature="0"
         id="path4277-7-5-7"
         d="M 0,0 5,-5 -12.5,0 5,5 0,0 Z"
         style="fill:#aaffaa;fill-opacity:1;fill-rule:evenodd;stroke:#aaffaa;stroke-width:1pt;stroke-opacity:1"
         transform="matrix(-0.2,0,0,-0.2,-1.2,0)" />
    </marker>
    <marker
       inkscape:stockid="Arrow1Send"
       orient="auto"
       refY="0"
       refX="0"
       id="Arrow1Send-62-9"
       style="overflow:visible"
       inkscape:isstock="true">
      <path
         inkscape:connector-curvature="0"
         id="path4277-9-2"
         d="M 0,0 5,-5 -12.5,0 5,5 0,0 Z"
         style="fill:#aaffaa;fill-opacity:1;fill-rule:evenodd;stroke:#aaffaa;stroke-width:1pt;stroke-opacity:1"
         transform="matrix(-0.2,0,0,-0.2,-1.2,0)" />
    </marker>
    <marker
       inkscape:stockid="Arrow1Send"
       orient="auto"
       refY="0"
       refX="0"
       id="Arrow1Send-6-0"
       style="overflow:visible"
       inkscape:isstock="true">
      <path
         inkscape:connector-curvature="0"
         id="path4277-7-2"
         d="M 0,0 5,-5 -12.5,0 5,5 0,0 Z"
         style="fill:#55ff55;fill-opacity:1;fill-rule:evenodd;stroke:#55ff55;stroke-width:1pt;stroke-opacity:1"
         transform="matrix(-0.2,0,0,-0.2,-1.2,0)" />
    </marker>
    <marker
       inkscape:stockid="Arrow1Send"
       orient="auto"
       refY="0"
       refX="0"
       id="Arrow1Send-3"
       style="overflow:visible"
       inkscape:isstock="true">
      <path
         inkscape:connector-curvature="0"
         id="path4277-75"
         d="M 0,0 5,-5 -12.5,0 5,5 0,0 Z"
         style="fill:#00d400;fill-opacity:1;fill-rule:evenodd;stroke:#00d400;stroke-width:1pt;stroke-opacity:1"
         transform="matrix(-0.2,0,0,-0.2,-1.2,0)" />
    </marker>
    <marker
       inkscape:stockid="Arrow1Send"
       orient="auto"
       refY="0"
       refX="0"
       id="Arrow1Send-6-7-6-6"
       style="overflow:visible"
       inkscape:isstock="true">
      <path
         inkscape:connector-curvature="0"
         id="path4277-7-0-2-1"
         d="M 0,0 5,-5 -12.5,0 5,5 0,0 Z"
         style="fill:#aaffaa;fill-opacity:1;fill-rule:evenodd;stroke:#aaffaa;stroke-width:1pt;stroke-opacity:1"
         transform="matrix(-0.2,0,0,-0.2,-1.2,0)" />
    </marker>
  </defs>
  <sodipodi:namedview
     id="base"
     pagecolor="#ffffff"
     bordercolor="#666666"
     borderopacity="1.0"
     inkscape:pageopacity="0.0"
     inkscape:pageshadow="2"
     inkscape:zoom="1.4"
     inkscape:cx="299.65712"
     inkscape:cy="766.24884"
     inkscape:document-units="px"
     inkscape:current-layer="layer1"
     showgrid="true"
     inkscape:snap-global="false"
     inkscape:window-width="1920"
     inkscape:window-height="1025"
     inkscape:window-x="0"
     inkscape:window-y="30"
     inkscape:window-maximized="1">
    <inkscape:grid
       type="xygrid"
       id="grid4136" />
  </sodipodi:namedview>
  <metadata
     id="metadata7">
    <rdf:RDF>
      <cc:Work
         rdf:about="">
        <dc:format>image/svg+xml</dc:format>
        <dc:type
           rdf:resource="http://purl.org/dc/dcmitype/StillImage" />
        <dc:title />
      </cc:Work>
    </rdf:RDF>
  </metadata>
  <g
     inkscape:label="Layer 1"
     inkscape:groupmode="layer"
     id="layer1">
    <path
       style="fill:none;fill-rule:evenodd;stroke:#0000ff;stroke-width:3;stroke-linecap:butt;stroke-linejoin:miter;stroke-miterlimit:4;stroke-dasharray:none;stroke-opacity:1"
       d="m 130,242.3622 c 151.77209,5.23352 259.42667,-2.13568 270.56929,16.8462 23.13462,39.41076 23.718,71.56901 57.67795,120.28131 14.42359,20.68926 115.82322,16.11099 171.95071,16.81157"
       id="path4592"
       inkscape:connector-curvature="0"
       sodipodi:nodetypes="cssc" />
    <path
       style="fill:none;fill-rule:evenodd;stroke:#ff0000;stroke-width:3;stroke-linecap:butt;stroke-linejoin:miter;stroke-miterlimit:4;stroke-dasharray:none;stroke-opacity:1"
       d="M 129.29953,192.72239 C 298.72607,320.78482 306.01015,398.37235 533.36054,402.83412"
       id="path4964"
       inkscape:connector-curvature="0"
       sodipodi:nodetypes="cc" />
    <path
       style="fill:none;fill-rule:evenodd;stroke:#000000;stroke-width:3;stroke-linecap:butt;stroke-linejoin:miter;stroke-miterlimit:4;stroke-dasharray:none;stroke-opacity:1"
       d="m 130,402.3622 530.51846,0.94885"
       id="path4492"
       inkscape:connector-curvature="0"
       sodipodi:nodetypes="cc" />
    <path
       style="fill:none;fill-rule:evenodd;stroke:#0000ff;stroke-width:3;stroke-linecap:butt;stroke-linejoin:miter;stroke-opacity:1;stroke-miterlimit:4;stroke-dasharray:none"
       d="m 130,402.3622 0,-250"
       id="path4138"
       inkscape:connector-curvature="0" />
    <text
       xml:space="preserve"
       style="font-style:normal;font-variant:normal;font-weight:500;font-stretch:normal;font-size:15px;line-height:125%;font-family:'Century Schoolbook L';-inkscape-font-specification:'Century Schoolbook L Medium';letter-spacing:0px;word-spacing:0px;fill:#000000;fill-opacity:1;stroke:none;stroke-width:1px;stroke-linecap:butt;stroke-linejoin:miter;stroke-opacity:1"
       x="354.28571"
       y="421.64792"
       id="text6158"
       sodipodi:linespacing="125%"><tspan
         sodipodi:role="line"
         id="tspan6160"
         x="354.28571"
         y="421.64792"
         style="font-size:17.5px">generations</tspan></text>
    <text
       xml:space="preserve"
       style="font-style:normal;font-variant:normal;font-weight:500;font-stretch:normal;font-size:10px;line-height:125%;font-family:'Century Schoolbook L';-inkscape-font-specification:'Century Schoolbook L Medium';letter-spacing:0px;word-spacing:0px;fill:#000000;fill-opacity:1;stroke:none;stroke-width:1px;stroke-linecap:butt;stroke-linejoin:miter;stroke-opacity:1"
       x="170"
       y="332.36221"
       id="text6162"
       sodipodi:linespacing="125%"><tspan
         sodipodi:role="line"
         id="tspan6164"
         x="170"
         y="332.36221" /></text>
    <text
       xml:space="preserve"
       style="font-style:normal;font-variant:normal;font-weight:500;font-stretch:normal;font-size:15px;line-height:125%;font-family:'Century Schoolbook L';-inkscape-font-specification:'Century Schoolbook L Medium';text-align:start;letter-spacing:0px;word-spacing:0px;text-anchor:start;fill:#ff0000;fill-opacity:1;stroke:none;stroke-width:1px;stroke-linecap:butt;stroke-linejoin:miter;stroke-opacity:1"
       x="-393.07401"
       y="677.88599"
       id="text6166"
       sodipodi:linespacing="125%"
       transform="matrix(0,-1,1,0,0,0)"><tspan
         sodipodi:role="line"
         x="-393.07401"
         y="677.88599"
         id="tspan4228"
         style="font-size:17.5px">Distance to some morphology </tspan><tspan
         sodipodi:role="line"
         x="-393.07401"
         y="699.76099"
         id="tspan4230"
         style="font-size:17.5px">that enables modular control</tspan></text>
    <text
       xml:space="preserve"
       style="font-style:normal;font-variant:normal;font-weight:500;font-stretch:normal;font-size:15px;line-height:125%;font-family:'Century Schoolbook L';-inkscape-font-specification:'Century Schoolbook L Medium';letter-spacing:0px;word-spacing:0px;fill:#0000ff;fill-opacity:1;stroke:none;stroke-width:1px;stroke-linecap:butt;stroke-linejoin:miter;stroke-opacity:1"
       x="-310.83585"
       y="122.2747"
       id="text6182"
       sodipodi:linespacing="125%"
       transform="matrix(0,-1,1,0,0,0)"><tspan
         sodipodi:role="line"
         id="tspan6184"
         x="-310.83585"
         y="122.2747"
         style="font-size:17.5px">Error</tspan></text>
    <path
       style="fill:none;fill-rule:evenodd;stroke:#000000;stroke-width:2;stroke-linecap:butt;stroke-linejoin:miter;stroke-opacity:1;stroke-miterlimit:4;stroke-dasharray:none"
       d="m 400,432.3622 0,50"
       id="path6210"
       inkscape:path-effect="#path-effect6212"
       inkscape:original-d="m 400,432.3622 0,50"
       inkscape:connector-curvature="0" />
    <path
       style="fill:none;fill-rule:evenodd;stroke:#000000;stroke-width:2;stroke-linecap:butt;stroke-linejoin:miter;stroke-opacity:1;stroke-miterlimit:4;stroke-dasharray:none"
       d="m 130,432.3622 0,50"
       id="path6214"
       inkscape:path-effect="#path-effect6216"
       inkscape:original-d="m 130,432.3622 0,50"
       inkscape:connector-curvature="0" />
    <path
       style="fill:none;fill-rule:evenodd;stroke:#000000;stroke-width:2;stroke-linecap:butt;stroke-linejoin:miter;stroke-miterlimit:4;stroke-dasharray:none;stroke-opacity:1"
       d="m 660,431.64791 0,50"
       id="path6218"
       inkscape:path-effect="#path-effect6220"
       inkscape:original-d="m 660,431.64791 0,50"
       inkscape:connector-curvature="0" />
    <text
       xml:space="preserve"
       style="font-style:normal;font-variant:normal;font-weight:500;font-stretch:normal;font-size:15px;line-height:125%;font-family:'Century Schoolbook L';-inkscape-font-specification:'Century Schoolbook L Medium';text-align:center;letter-spacing:0px;word-spacing:0px;text-anchor:middle;fill:#000000;fill-opacity:1;stroke:none;stroke-width:1px;stroke-linecap:butt;stroke-linejoin:miter;stroke-opacity:1"
       x="266.13504"
       y="443.21936"
       id="text6222"
       sodipodi:linespacing="125%"><tspan
         sodipodi:role="line"
         x="266.13504"
         y="443.21936"
         id="tspan6232"
         style="font-size:17.5px">Morphology is optimized</tspan><tspan
         sodipodi:role="line"
         x="266.13504"
         y="465.09436"
         style="font-size:17.5px"
         id="tspan4238">to maximize the error</tspan><tspan
         sodipodi:role="line"
         x="266.13504"
         y="486.96936"
         style="font-size:17.5px"
         id="tspan4244">convergence rate</tspan></text>
    <text
       xml:space="preserve"
       style="font-style:normal;font-variant:normal;font-weight:500;font-stretch:normal;font-size:15px;line-height:125%;font-family:'Century Schoolbook L';-inkscape-font-specification:'Century Schoolbook L Medium';text-align:center;letter-spacing:0px;word-spacing:0px;text-anchor:middle;fill:#000000;fill-opacity:1;stroke:none;stroke-width:1px;stroke-linecap:butt;stroke-linejoin:miter;stroke-opacity:1"
       x="533.53632"
       y="443.07648"
       id="text6240"
       sodipodi:linespacing="125%"><tspan
         sodipodi:role="line"
         id="tspan6242"
         x="535.96307"
         y="443.07648"
         style="font-size:17.5px">Control is optimized to </tspan><tspan
         sodipodi:role="line"
         x="533.53632"
         y="464.95148"
         id="tspan6244"
         style="font-size:17.5px">minimize the error</tspan></text>
    <path
       style="fill:none;fill-rule:evenodd;stroke:#000000;stroke-width:2;stroke-linecap:butt;stroke-linejoin:miter;stroke-miterlimit:4;stroke-dasharray:none;stroke-opacity:1;marker-end:url(#Arrow2Mend)"
       d="m 452.85714,306.64791 -20,20"
       id="path4211"
       inkscape:connector-curvature="0"
       sodipodi:nodetypes="cc" />
    <text
       xml:space="preserve"
       style="font-style:normal;font-variant:normal;font-weight:500;font-stretch:normal;font-size:15px;line-height:125%;font-family:'Century Schoolbook L';-inkscape-font-specification:'Century Schoolbook L Medium';text-align:center;letter-spacing:0px;word-spacing:0px;text-anchor:middle;fill:#000000;fill-opacity:1;stroke:none;stroke-width:1px;stroke-linecap:butt;stroke-linejoin:miter;stroke-opacity:1"
       x="541.04651"
       y="252.21933"
       id="text4613"
       sodipodi:linespacing="125%"><tspan
         sodipodi:role="line"
         id="tspan4615"
         x="543.47327"
         y="252.21933"
         style="font-size:17.5px;text-align:center;text-anchor:middle">Steep increase of the </tspan><tspan
         sodipodi:role="line"
         x="543.47327"
         y="274.09433"
         id="tspan4617"
         style="font-size:17.5px;text-align:center;text-anchor:middle">convergence rate due to </tspan><tspan
         sodipodi:role="line"
         x="543.47327"
         y="295.96933"
         id="tspan4619"
         style="font-size:17.5px;text-align:center;text-anchor:middle">newly achieved feasibility </tspan><tspan
         sodipodi:role="line"
         x="541.04651"
         y="317.84433"
         style="font-size:17.5px;text-align:center;text-anchor:middle"
         id="tspan4254">of modular control</tspan></text>
    <path
       style="fill:none;fill-rule:evenodd;stroke:#ff0000;stroke-width:3;stroke-linecap:butt;stroke-linejoin:miter;stroke-miterlimit:4;stroke-dasharray:none;stroke-opacity:1"
       d="m 660.71428,404.50506 0,-250"
       id="path4138-3"
       inkscape:connector-curvature="0" />
    <path
       style="fill:none;fill-rule:evenodd;stroke:#000000;stroke-width:2;stroke-linecap:butt;stroke-linejoin:miter;stroke-miterlimit:4;stroke-dasharray:none;stroke-opacity:1;marker-end:url(#Arrow1Send)"
       d="m 158.58869,181.25243 c 8.68426,-0.87731 10.36006,-8.32543 10.76734,-12.26988 1.18499,-11.47648 -6.73347,-15.498 -14.43765,-15.63411 -7.43997,-0.13144 -14.42351,5.77874 -14.67647,11.95838 -0.1635,3.9942 2.13844,11.45544 10.5404,15.7364"
       id="path4256"
       inkscape:connector-curvature="0"
       sodipodi:nodetypes="csssc" />
    <path
       style="fill:none;fill-rule:evenodd;stroke:#000000;stroke-width:2;stroke-linecap:butt;stroke-linejoin:miter;stroke-miterlimit:4;stroke-dasharray:none;stroke-opacity:1;marker-end:url(#Arrow1Send-6)"
       d="m 198.19046,180.72444 c 8.68426,-0.87731 10.36006,-8.32543 10.76734,-12.26988 1.18499,-11.47648 -6.73347,-15.498 -14.43765,-15.63411 -7.43997,-0.13144 -14.42351,5.77874 -14.67647,11.95838 -0.1635,3.9942 2.13844,11.45544 10.5404,15.7364"
       id="path4256-5"
       inkscape:connector-curvature="0"
       sodipodi:nodetypes="csssc" />
    <path
       style="fill:none;fill-rule:evenodd;stroke:#000000;stroke-width:2;stroke-linecap:butt;stroke-linejoin:miter;stroke-miterlimit:4;stroke-dasharray:none;stroke-opacity:1;marker-end:url(#Arrow1Send-62)"
       d="m 238.49366,181.49351 c 8.68426,-0.87731 10.36006,-8.32543 10.76734,-12.26988 1.18499,-11.47648 -6.73347,-15.498 -14.43765,-15.63411 -7.43997,-0.13144 -14.42351,5.77874 -14.67647,11.95838 -0.1635,3.9942 2.13844,11.45544 10.5404,15.7364"
       id="path4256-1"
       inkscape:connector-curvature="0"
       sodipodi:nodetypes="csssc" />
    <path
       style="fill:none;fill-rule:evenodd;stroke:#005500;stroke-width:2;stroke-linecap:butt;stroke-linejoin:miter;stroke-miterlimit:4;stroke-dasharray:none;stroke-opacity:1;marker-end:url(#Arrow1Send-6-3)"
       d="m 278.09543,180.96552 c 8.68426,-0.87731 10.36006,-8.32543 10.76734,-12.26988 1.18499,-11.47648 -6.73347,-15.498 -14.43765,-15.63411 -7.43997,-0.13144 -14.42351,5.77874 -14.67647,11.95838 -0.1635,3.9942 2.13844,11.45544 10.5404,15.7364"
       id="path4256-5-2"
       inkscape:connector-curvature="0"
       sodipodi:nodetypes="csssc" />
    <path
       style="fill:none;fill-rule:evenodd;stroke:#005500;stroke-width:2;stroke-linecap:butt;stroke-linejoin:miter;stroke-miterlimit:4;stroke-dasharray:none;stroke-opacity:1;marker-end:url(#Arrow1Send-9)"
       d="m 317.28555,181.49351 c 8.68426,-0.87731 10.36006,-8.32543 10.76734,-12.26988 1.18499,-11.47648 -6.73347,-15.498 -14.43765,-15.63411 -7.43997,-0.13144 -14.42351,5.77874 -14.67647,11.95838 -0.1635,3.9942 2.13844,11.45544 10.5404,15.7364"
       id="path4256-6"
       inkscape:connector-curvature="0"
       sodipodi:nodetypes="csssc" />
    <path
       style="fill:none;fill-rule:evenodd;stroke:#008000;stroke-width:2;stroke-linecap:butt;stroke-linejoin:miter;stroke-miterlimit:4;stroke-dasharray:none;stroke-opacity:1;marker-end:url(#Arrow1Send-6-7)"
       d="m 356.88732,180.96552 c 8.68426,-0.87731 10.36006,-8.32543 10.76734,-12.26988 1.18499,-11.47648 -6.73347,-15.498 -14.43765,-15.63411 -7.43997,-0.13144 -14.42351,5.77874 -14.67647,11.95838 -0.1635,3.9942 2.13844,11.45544 10.5404,15.7364"
       id="path4256-5-0"
       inkscape:connector-curvature="0"
       sodipodi:nodetypes="csssc" />
    <path
       style="fill:none;fill-rule:evenodd;stroke:#00d400;stroke-width:2;stroke-linecap:butt;stroke-linejoin:miter;stroke-miterlimit:4;stroke-dasharray:none;stroke-opacity:1;marker-end:url(#Arrow1Send-3)"
       d="m 396.53107,181.37297 c 8.68426,-0.87731 10.36006,-8.32543 10.76734,-12.26988 1.18499,-11.47648 -6.73347,-15.498 -14.43765,-15.63411 -7.43997,-0.13144 -14.42351,5.77874 -14.67647,11.95838 -0.1635,3.9942 2.13844,11.45544 10.5404,15.7364"
       id="path4256-9"
       inkscape:connector-curvature="0"
       sodipodi:nodetypes="csssc" />
    <path
       style="fill:none;fill-rule:evenodd;stroke:#55ff55;stroke-width:2;stroke-linecap:butt;stroke-linejoin:miter;stroke-miterlimit:4;stroke-dasharray:none;stroke-opacity:1;marker-end:url(#Arrow1Send-6-0)"
       d="m 436.13284,180.84498 c 8.68426,-0.87731 10.36006,-8.32543 10.76734,-12.26988 1.18499,-11.47648 -6.73347,-15.498 -14.43765,-15.63411 -7.43997,-0.13144 -14.42351,5.77874 -14.67647,11.95838 -0.1635,3.9942 2.13844,11.45544 10.5404,15.7364"
       id="path4256-5-22"
       inkscape:connector-curvature="0"
       sodipodi:nodetypes="csssc" />
    <path
       style="fill:none;fill-rule:evenodd;stroke:#aaffaa;stroke-width:2;stroke-linecap:butt;stroke-linejoin:miter;stroke-miterlimit:4;stroke-dasharray:none;stroke-opacity:1;marker-end:url(#Arrow1Send-62-9)"
       d="m 476.43604,181.61405 c 8.68426,-0.87731 10.36006,-8.32543 10.76734,-12.26988 1.18499,-11.47648 -6.73347,-15.498 -14.43765,-15.63411 -7.43997,-0.13144 -14.42351,5.77874 -14.67647,11.95838 -0.1635,3.9942 2.13844,11.45544 10.5404,15.7364"
       id="path4256-1-8"
       inkscape:connector-curvature="0"
       sodipodi:nodetypes="csssc" />
    <path
       style="fill:none;fill-rule:evenodd;stroke:#aaffaa;stroke-width:2;stroke-linecap:butt;stroke-linejoin:miter;stroke-miterlimit:4;stroke-dasharray:none;stroke-opacity:1;marker-end:url(#Arrow1Send-6-3-8)"
       d="m 516.03781,181.08606 c 8.68426,-0.87731 10.36006,-8.32543 10.76734,-12.26988 1.18499,-11.47648 -6.73347,-15.498 -14.43765,-15.63411 -7.43997,-0.13144 -14.42351,5.77874 -14.67647,11.95838 -0.1635,3.9942 2.13844,11.45544 10.5404,15.7364"
       id="path4256-5-2-9"
       inkscape:connector-curvature="0"
       sodipodi:nodetypes="csssc" />
    <path
       style="fill:none;fill-rule:evenodd;stroke:#aaffaa;stroke-width:2;stroke-linecap:butt;stroke-linejoin:miter;stroke-miterlimit:4;stroke-dasharray:none;stroke-opacity:1;marker-end:url(#Arrow1Send-9-6)"
       d="m 555.22793,181.61405 c 8.68426,-0.87731 10.36006,-8.32543 10.76734,-12.26988 1.18499,-11.47648 -6.73347,-15.498 -14.43765,-15.63411 -7.43997,-0.13144 -14.42351,5.77874 -14.67647,11.95838 -0.1635,3.9942 2.13844,11.45544 10.5404,15.7364"
       id="path4256-6-7"
       inkscape:connector-curvature="0"
       sodipodi:nodetypes="csssc" />
    <path
       style="fill:none;fill-rule:evenodd;stroke:#aaffaa;stroke-width:2;stroke-linecap:butt;stroke-linejoin:miter;stroke-miterlimit:4;stroke-dasharray:none;stroke-opacity:1;marker-end:url(#Arrow1Send-6-7-6)"
       d="m 594.8297,181.08606 c 8.68426,-0.87731 10.36006,-8.32543 10.76734,-12.26988 1.18499,-11.47648 -6.73347,-15.498 -14.43765,-15.63411 -7.43997,-0.13144 -14.42351,5.77874 -14.67647,11.95838 -0.1635,3.9942 2.13844,11.45544 10.5404,15.7364"
       id="path4256-5-0-3"
       inkscape:connector-curvature="0"
       sodipodi:nodetypes="csssc" />
    <path
       style="fill:none;fill-rule:evenodd;stroke:#aaffaa;stroke-width:2;stroke-linecap:butt;stroke-linejoin:miter;stroke-miterlimit:4;stroke-dasharray:none;stroke-opacity:1;marker-end:url(#Arrow1Send-6-7-6-6)"
       d="m 634.07128,180.72444 c 8.68426,-0.87731 10.36006,-8.32543 10.76734,-12.26988 1.18499,-11.47648 -6.73347,-15.498 -14.43765,-15.63411 -7.43997,-0.13144 -14.42351,5.77874 -14.67647,11.95838 -0.1635,3.9942 2.13844,11.45544 10.5404,15.7364"
       id="path4256-5-0-3-2"
       inkscape:connector-curvature="0"
       sodipodi:nodetypes="csssc" />
    <text
       xml:space="preserve"
       style="font-style:normal;font-variant:normal;font-weight:500;font-stretch:normal;font-size:17.5px;line-height:125%;font-family:'Century Schoolbook L';-inkscape-font-specification:'Century Schoolbook L Medium';letter-spacing:0px;word-spacing:0px;fill:#008000;fill-opacity:1;stroke:none;stroke-width:1px;stroke-linecap:butt;stroke-linejoin:miter;stroke-opacity:1"
       x="320.71429"
       y="140.21936"
       id="text8876"
       sodipodi:linespacing="125%"><tspan
         sodipodi:role="line"
         id="tspan8878"
         x="320.71429"
         y="140.21936">Control optimization</tspan></text>
  </g>
</svg>
